<?xml version="1.0" encoding="UTF-8"?><svg xmlns="http://www.w3.org/2000/svg" xmlns:xlink="http://www.w3.org/1999/xlink" viewBox="0 0 1800.19 486.33"><defs><style>.e{fill:url(#d);}</style><linearGradient id="d" x1="0" y1="243.17" x2="1800.19" y2="243.17" gradientTransform="matrix(1, 0, 0, 1, 0, 0)" gradientUnits="userSpaceOnUse"><stop offset="0" stop-color="#32ded4"/><stop offset="1" stop-color="#002bdc"/></linearGradient></defs><g id="a"/><g id="b"><g id="c"><path class="e" d="M.09,437.2C.09,292.99,.11,148.79,0,4.58,0,.84,.84,0,4.59,0,601.59,.1,1198.59,.1,1795.59,0c3.75,0,4.6,.84,4.59,4.58-.11,144.2-.09,288.41-.09,432.61-8.74,1.26-17.48,2.45-26.21,3.79-43.13,6.61-86.35,12.61-129.61,18.27-51.52,6.74-103.12,12.69-154.88,17.39-43.8,3.98-87.66,7.11-131.61,8.37-38.8,1.11-77.6,2.06-116.45,.5-34.79-1.4-69.54-3.04-104.23-6.05-44.65-3.88-89.14-9.22-133.48-15.59-70.09-10.07-139.85-22.19-209.66-33.98-97.08-16.39-194.08-33.27-292.51-39.85-30.61-2.05-61.24-3.11-91.88-3.11-31.81,0-63.61,1.14-95.37,3.25-30.27,2.01-60.42,5.03-90.51,8.71-51.79,6.34-103.18,15.19-154.47,24.69-23.1,4.28-46.24,8.35-69.14,13.61Z"/></g></g></svg>