<?xml version="1.0" standalone="no"?>
<!DOCTYPE svg PUBLIC "-//W3C//DTD SVG 20010904//EN"
 "http://www.w3.org/TR/2001/REC-SVG-20010904/DTD/svg10.dtd">
<svg version="1.0" xmlns="http://www.w3.org/2000/svg"
 width="1800.000000pt" height="875.000000pt" viewBox="0 0 1800.000000 875.000000"
 preserveAspectRatio="xMidYMid meet">

<g transform="translate(0.000000,875.000000) scale(0.100000,-0.100000)"
fill="#000000" stroke="none">
<path d="M3620 5110 c-785 -36 -1501 -145 -2310 -352 -325 -83 -600 -162
-1102 -318 l-208 -65 0 -2187 0 -2188 5188 0 c3051 0 5181 4 5173 9 -11 7 -9
10 10 14 19 3 16 5 -11 7 -33 2 -33 3 -10 10 14 4 18 9 10 10 -8 1 -4 6 10 10
23 7 23 8 -10 10 -33 2 -33 3 -10 10 14 4 18 9 10 10 -8 1 -4 6 10 10 23 7 23
8 -10 10 -33 2 -33 3 -10 10 14 4 18 9 10 10 -8 1 -4 6 10 10 23 7 23 8 -10
10 -33 2 -33 3 -10 10 14 4 18 9 10 10 -8 1 -4 6 10 10 23 7 23 8 -10 10 -33
2 -33 3 -10 10 14 4 18 9 10 10 -8 1 -4 6 10 10 23 7 23 8 -10 10 -33 2 -33 3
-10 10 14 4 18 9 10 10 -8 1 -4 6 10 10 23 7 23 8 -10 10 -33 2 -33 3 -10 10
14 4 18 9 10 10 -8 1 -4 6 10 10 23 7 23 8 -10 10 -33 2 -33 3 -10 10 14 4 18
9 10 10 -8 1 -4 6 10 10 23 7 23 8 -10 10 -33 2 -33 3 -10 10 14 4 18 9 10 10
-8 1 -4 6 10 10 23 7 23 8 -10 10 -33 2 -33 3 -10 10 14 4 18 9 10 10 -8 1 -4
6 10 10 23 7 23 8 -10 10 -33 2 -33 3 -10 10 14 4 18 9 10 10 -8 1 -4 6 10 10
23 7 23 8 -10 10 -33 2 -33 3 -10 10 14 4 18 9 10 10 -8 1 -4 6 10 10 23 7 23
8 -10 10 -33 2 -33 3 -10 10 14 4 18 9 10 10 -8 1 -4 6 10 10 23 7 23 8 -10
10 -33 2 -33 3 -10 10 14 4 18 9 10 10 -8 1 -4 6 10 10 23 7 23 8 -10 10 -33
2 -33 3 -10 10 14 4 18 9 10 10 -8 1 -4 6 10 10 23 7 23 8 -10 10 -33 2 -33 3
-10 10 14 4 18 9 10 10 -8 1 -4 6 10 10 23 7 23 8 -10 10 -33 2 -33 3 -10 10
14 4 18 9 10 10 -8 1 -4 6 10 10 23 7 23 8 -10 10 -33 2 -33 3 -10 10 14 4 18
9 10 10 -8 1 -4 6 10 10 23 7 23 8 -10 10 -33 2 -33 3 -10 10 14 4 18 9 10 10
-8 1 -4 6 10 10 23 7 23 8 -10 10 -33 2 -33 3 -10 10 14 4 18 9 10 10 -8 1 -4
6 10 10 23 7 23 8 -10 10 -33 2 -33 3 -10 10 14 4 18 9 10 10 -8 1 -4 6 10 10
23 7 23 8 -10 10 -33 2 -33 3 -10 10 14 4 18 9 10 10 -8 1 -4 6 10 10 23 7 23
8 -10 10 -33 2 -33 3 -10 10 14 4 18 9 10 10 -8 1 -4 6 10 10 23 7 23 8 -10
10 -33 2 -33 3 -10 10 14 4 18 9 10 10 -8 1 -4 6 10 10 23 7 23 8 -10 10 -33
2 -33 3 -10 10 14 4 18 9 10 10 -8 1 -4 6 10 10 23 7 23 8 -10 10 -33 2 -33 3
-10 10 14 4 18 9 10 10 -8 1 -4 6 10 10 23 7 23 8 -10 10 -33 2 -33 3 -10 10
14 4 18 9 10 10 -8 1 -4 6 10 10 23 7 23 8 -10 10 -33 2 -33 3 -10 10 14 4 18
9 10 10 -8 1 -4 6 10 10 23 7 23 8 -10 10 -33 2 -33 3 -10 10 14 4 18 9 10 10
-8 1 -4 6 10 10 23 7 23 8 -10 10 -33 2 -33 3 -10 10 14 4 18 9 10 10 -8 1 -4
6 10 10 23 7 23 8 -10 10 -33 2 -33 3 -10 10 14 4 18 9 10 10 -8 1 -4 6 10 10
23 7 23 8 -10 10 -33 2 -33 3 -10 10 14 4 18 9 10 10 -8 1 -4 6 10 10 23 7 23
8 -10 10 -33 2 -33 3 -10 10 14 4 18 9 10 10 -8 1 -4 6 10 10 23 7 23 8 -10
10 -33 2 -33 3 -10 10 14 4 18 9 10 10 -8 1 -4 6 10 10 23 7 23 8 -10 10 -33
2 -33 3 -10 10 14 4 18 9 10 10 -8 1 -4 6 10 10 23 7 23 8 -10 10 -33 2 -33 3
-10 10 14 4 18 9 10 10 -8 1 -4 6 10 10 23 7 23 8 -10 10 -33 2 -33 3 -10 10
14 4 18 9 10 10 -8 1 -4 6 10 10 23 7 23 8 -10 10 -33 2 -33 3 -10 10 14 4 18
9 10 10 -8 1 -4 6 10 10 23 7 23 8 -10 10 -33 2 -33 3 -10 10 14 4 18 9 10 10
-8 1 -4 6 10 10 23 7 23 8 -10 10 -33 2 -33 3 -10 10 14 4 18 9 10 10 -8 1 -4
6 10 10 23 7 23 8 -10 10 -33 2 -33 3 -10 10 14 4 18 9 10 10 -8 1 -4 6 10 10
23 7 23 8 -10 10 -33 2 -33 3 -10 10 14 4 18 9 10 10 -8 1 -4 6 10 10 23 7 23
8 -10 10 -33 2 -33 3 -10 10 14 4 18 9 10 10 -8 1 -4 6 10 10 23 7 23 8 -10
10 -33 2 -33 3 -10 10 14 4 18 9 10 10 -8 1 -4 6 10 10 23 7 23 8 -10 10 -33
2 -33 3 -10 10 14 4 18 9 10 10 -8 1 -4 6 10 10 23 7 23 8 -10 10 -33 2 -33 3
-10 10 14 4 18 9 10 10 -8 1 -4 6 10 10 23 7 23 8 -10 10 -33 2 -33 3 -10 10
14 4 18 9 10 10 -8 1 -4 6 10 10 23 7 23 8 -10 10 -33 2 -33 3 -10 10 14 4 18
9 10 10 -8 1 -4 6 10 10 23 7 23 8 -10 10 -33 2 -33 3 -10 10 14 4 18 9 10 10
-8 1 -4 6 10 10 23 7 23 8 -10 10 -33 2 -33 3 -10 10 14 4 18 9 10 10 -8 1 -4
6 10 10 23 7 23 8 -10 10 -33 2 -33 3 -10 10 14 4 18 9 10 10 -8 1 -4 6 10 10
23 7 23 8 -10 10 -33 2 -33 3 -10 10 14 4 18 9 10 10 -8 1 -4 6 10 10 23 7 23
8 -10 10 -33 2 -33 3 -10 10 14 4 18 9 10 10 -8 1 -4 6 10 10 23 7 23 8 -10
10 -33 2 -33 3 -10 10 14 4 18 9 10 10 -8 1 -4 6 10 10 23 7 23 8 -10 10 -33
2 -33 3 -10 10 14 4 18 9 10 10 -8 1 -4 6 10 10 23 7 23 8 -10 10 -33 2 -33 3
-10 10 14 4 18 9 10 10 -8 1 -4 6 10 10 23 7 23 8 -10 10 -33 2 -33 3 -10 10
14 4 18 9 10 10 -8 1 -4 6 10 10 23 7 23 8 -10 10 -33 2 -33 3 -10 10 14 4 18
9 10 10 -8 1 -4 6 10 10 23 7 23 8 -10 10 -33 2 -33 3 -10 10 14 4 18 9 10 10
-8 1 -4 6 10 10 23 7 23 8 -10 10 -33 2 -33 3 -10 10 14 4 18 9 10 10 -8 1 -4
6 10 10 23 7 23 8 -10 10 -33 2 -33 3 -10 10 14 4 18 9 10 10 -8 1 -4 6 10 10
23 7 23 8 -10 10 -33 2 -33 3 -10 10 14 4 18 9 10 10 -8 1 -4 6 10 10 23 7 23
8 -10 10 -33 2 -33 3 -10 10 14 4 18 9 10 10 -8 1 -4 6 10 10 23 7 23 8 -10
10 -33 2 -33 3 -10 10 14 4 18 9 10 10 -8 1 -4 6 10 10 23 7 23 8 -10 10 -33
2 -33 3 -10 10 14 4 18 9 10 10 -8 1 -4 6 10 10 23 7 23 8 -10 10 -33 2 -33 3
-10 10 14 4 18 9 10 10 -8 1 -4 6 10 10 23 7 23 8 -10 10 -33 2 -33 3 -10 10
14 4 18 9 10 10 -8 1 -4 6 10 10 23 7 23 8 -10 10 -33 2 -33 3 -10 10 14 4 18
9 10 10 -8 1 -4 6 10 10 23 7 23 8 -10 10 -33 2 -33 3 -10 10 14 4 18 9 10 10
-8 1 -4 6 10 10 23 7 23 8 -10 10 -33 2 -33 3 -10 10 14 4 18 9 10 10 -8 1 -4
6 10 10 23 7 23 8 -10 10 -33 2 -33 3 -10 10 14 4 18 9 10 10 -8 1 -4 6 10 10
23 7 23 8 -10 10 -33 2 -33 3 -10 10 14 4 18 9 10 10 -8 1 -4 6 10 10 23 7 23
8 -10 10 -33 2 -33 3 -10 10 14 4 18 9 10 10 -8 1 -4 6 10 10 23 7 23 8 -10
10 -33 2 -33 3 -10 10 14 4 18 9 10 10 -8 1 -4 6 10 10 23 7 23 8 -10 10 -33
2 -33 3 -10 10 14 4 18 9 10 10 -8 1 -4 6 10 10 23 7 23 8 -10 10 -33 2 -33 3
-10 10 14 4 18 9 10 10 -8 1 -4 6 10 10 23 7 23 8 -10 10 -33 2 -33 3 -10 10
14 4 18 9 10 10 -8 1 -4 6 10 10 23 7 23 8 -10 10 -33 2 -33 3 -10 10 14 4 18
9 10 10 -8 1 -4 6 10 10 23 7 23 8 -10 10 -33 2 -33 3 -10 10 14 4 18 9 10 10
-8 1 -4 6 10 10 23 7 23 8 -10 10 -33 2 -33 3 -10 10 14 4 18 9 10 10 -8 1 -4
6 10 10 23 7 23 8 -10 10 -33 2 -33 3 -10 10 14 4 18 9 10 10 -8 1 -4 6 10 10
23 7 23 8 -10 10 -33 2 -33 3 -10 10 14 4 18 9 10 10 -8 1 -4 6 10 10 23 7 23
8 -10 10 -33 2 -33 3 -10 10 14 4 18 9 10 10 -8 1 -4 6 10 10 23 7 23 8 -10
10 -33 2 -33 3 -10 10 14 4 18 9 10 10 -8 1 -4 6 10 10 23 7 23 8 -10 10 -33
2 -33 3 -10 10 14 4 18 9 10 10 -8 1 -4 6 10 10 23 7 23 8 -10 10 -33 2 -33 3
-10 10 14 4 18 9 10 10 -8 1 -4 6 10 10 23 7 23 8 -10 10 -33 2 -33 3 -10 10
14 4 18 9 10 10 -8 1 -4 6 10 10 23 7 23 8 -10 10 -33 2 -33 3 -10 10 14 4 18
9 10 10 -8 1 -4 6 10 10 23 7 23 8 -10 10 -33 2 -33 3 -10 10 14 4 18 9 10 10
-8 1 -4 6 10 10 23 7 23 8 -10 10 -33 2 -33 3 -10 10 14 4 18 9 10 10 -8 1 -4
6 10 10 23 7 23 8 -10 10 -33 2 -33 3 -10 10 14 4 18 9 10 10 -8 1 -4 6 10 10
23 7 23 8 -10 10 -33 2 -33 3 -10 10 14 4 18 9 10 10 -8 1 -4 6 10 10 23 7 23
8 -10 10 -33 2 -33 3 -10 10 14 4 18 9 10 10 -8 1 -4 6 10 10 23 7 23 8 -10
10 -33 2 -33 3 -10 10 14 4 18 9 10 10 -8 1 -4 6 10 10 23 7 23 8 -10 10 -33
2 -33 3 -10 10 14 4 18 9 10 10 -8 1 -4 6 10 10 23 7 23 8 -10 10 -33 2 -33 3
-10 10 14 4 18 9 10 10 -8 1 -4 6 10 10 23 7 23 8 -10 10 -33 2 -33 3 -10 10
14 4 18 9 10 10 -8 1 -4 6 10 10 23 7 23 8 -10 10 -33 2 -33 3 -10 10 14 4 18
9 10 10 -8 1 -4 6 10 10 23 7 23 8 -10 10 -33 2 -33 3 -10 10 14 4 18 9 10 10
-8 1 -4 6 10 10 23 7 23 8 -10 10 -33 2 -33 3 -10 10 14 4 18 9 10 10 -8 1 -4
6 10 10 23 7 23 8 -10 10 -33 2 -33 3 -10 10 14 4 18 9 10 10 -8 1 -4 6 10 10
23 7 23 8 -10 10 -33 2 -33 3 -10 10 14 4 18 9 10 10 -8 1 -4 6 10 10 23 7 23
8 -10 10 -33 2 -33 3 -10 10 14 4 18 9 10 10 -8 1 -4 6 10 10 23 7 23 8 -10
10 -33 2 -33 3 -10 10 14 4 18 9 10 10 -8 1 -4 6 10 10 23 7 23 8 -10 10 -33
2 -33 3 -10 10 14 4 18 9 10 10 -8 1 -4 6 10 10 23 7 23 8 -10 10 -33 2 -33 3
-10 10 14 4 18 9 10 10 -8 1 -4 6 10 10 23 7 23 8 -10 10 -32 2 -33 3 -10 9
24 7 23 8 -15 20 -22 6 -170 34 -330 61 -468 81 -1084 187 -1455 251 -1638
282 -2693 423 -3624 485 -272 18 -1042 26 -1306 14z"/>
</g>
</svg>
