<svg width="1801" height="487" viewBox="0 0 1801 487" fill="none" xmlns="http://www.w3.org/2000/svg">
<path d="M0.09 437.2C0.09 292.99 0.11 148.79 0 4.58C0 0.84 0.84 0 4.59 0C601.59 0.1 1198.59 0.1 1795.59 0C1799.34 0 1800.19 0.84 1800.18 4.58C1800.07 148.78 1800.09 292.99 1800.09 437.19C1791.35 438.45 1782.61 439.64 1773.88 440.98C1730.75 447.59 1687.53 453.59 1644.27 459.25C1592.75 465.99 1541.15 471.94 1489.39 476.64C1445.59 480.62 1401.73 483.75 1357.78 485.01C1318.98 486.12 1280.18 487.07 1241.33 485.51C1206.54 484.11 1171.79 482.47 1137.1 479.46C1092.45 475.58 1047.96 470.24 1003.62 463.87C933.53 453.8 863.77 441.68 793.96 429.89C696.88 413.5 599.88 396.62 501.45 390.04C470.84 387.99 440.21 386.93 409.57 386.93C377.76 386.93 345.96 388.07 314.2 390.18C283.93 392.19 253.78 395.21 223.69 398.89C171.9 405.23 120.51 414.08 69.22 423.58C46.12 427.86 22.98 431.93 0.08 437.19L0.09 437.2Z" fill="url(#paint0_linear_444_196)"/>
<defs>
<linearGradient id="paint0_linear_444_196" x1="0" y1="243.17" x2="1800.19" y2="243.17" gradientUnits="userSpaceOnUse">
<stop stop-color="#32DED4"/>
<stop offset="1" stop-color="#002BDC"/>
</linearGradient>
</defs>
</svg>
